<mxfile host="app.diagrams.net" modified="2023-12-05T05:42:57.980Z" agent="Mozilla/5.0 (Windows NT 10.0; Win64; x64) AppleWebKit/537.36 (KHTML, like Gecko) Chrome/119.0.0.0 Safari/537.36" version="22.1.5" etag="9qSBps3LZ0hFpvSTP9fo" type="github">
  <diagram name="페이지-1" id="-JYcj3cmphw7MgAvg81x">
    <mxGraphModel>
      <root>
        <mxCell id="0" />
        <mxCell id="1" parent="0" />
      </root>
    </mxGraphModel>
  </diagram>
</mxfile>
